<?xml version="1.0" standalone="no"?>
<!DOCTYPE svg PUBLIC "-//W3C//DTD SVG 20010904//EN"
 "http://www.w3.org/TR/2001/REC-SVG-20010904/DTD/svg10.dtd">
<svg version="1.0" xmlns="http://www.w3.org/2000/svg"
 width="564.000000pt" height="564.000000pt" viewBox="0 0 564.000000 564.000000"
 preserveAspectRatio="xMidYMid meet">
<metadata>
Created by potrace 1.14, written by Peter Selinger 2001-2017
</metadata>
<g transform="translate(0.000000,564.000000) scale(0.100000,-0.100000)"
fill="#000000" stroke="none">
<path d="M2588 5595 c-2 -1 -37 -5 -78 -9 -101 -8 -191 -22 -306 -47 -53 -11
-104 -22 -113 -24 -39 -8 -222 -66 -285 -90 -119 -45 -283 -123 -426 -202 -29
-16 -149 -94 -212 -138 -139 -96 -338 -275 -468 -420 -81 -90 -218 -273 -275
-366 -50 -83 -130 -228 -153 -280 -16 -35 -38 -84 -50 -109 -61 -136 -135
-371 -167 -535 -36 -176 -48 -304 -49 -515 -1 -251 9 -391 39 -540 22 -112 29
-144 47 -210 23 -87 65 -216 102 -313 58 -152 223 -462 277 -523 11 -11 19
-24 19 -28 0 -9 133 -183 192 -250 129 -148 255 -263 468 -429 119 -92 525
-317 573 -317 7 0 17 -4 23 -9 14 -14 265 -96 369 -121 245 -59 396 -75 710
-75 384 0 610 35 938 146 171 58 426 177 535 250 24 16 45 29 47 29 2 0 44 28
92 61 388 270 696 624 907 1042 59 117 137 308 169 412 33 111 47 163 61 230
28 136 35 181 41 235 4 30 10 87 15 125 8 67 5 483 -4 535 -2 14 -7 50 -10 80
-4 30 -10 69 -13 85 -3 17 -7 39 -9 50 -1 11 -10 53 -19 94 -9 40 -18 78 -19
85 -12 57 -98 318 -128 385 -46 104 -131 271 -175 345 -27 43 -52 86 -58 95
-32 53 -135 192 -202 273 -401 481 -972 822 -1583 943 -93 19 -137 25 -295 44
-64 7 -519 13 -527 6z"/>
</g>
</svg>
